HIERARCHY
ROOT hip
{
  OFFSET 0 0 0
  CHANNELS 6 Xposition Yposition Zposition Zrotation Yrotation Xrotation
  JOINT abdomen
  {
    OFFSET 0 20.6881 -0.73152
    CHANNELS 3 Zrotation Xrotation Yrotation
    JOINT chest
    {
      OFFSET 0 11.7043 -0.48768
      CHANNELS 3 Zrotation Xrotation Yrotation
      JOINT neck
      {
        OFFSET 0 22.1894 -2.19456
        CHANNELS 3 Zrotation Xrotation Yrotation
        JOINT head
        {
          OFFSET -0.24384 7.07133 1.2192
          CHANNELS 3 Zrotation Xrotation Yrotation
          JOINT leftEye
          {
            OFFSET 4.14528 8.04674 8.04672
            CHANNELS 3 Zrotation Xrotation Yrotation
            End Site
            {
              OFFSET 1 0 0
            }
          }
          JOINT rightEye
          {
            OFFSET -3.6576 8.04674 8.04672
            CHANNELS 3 Zrotation Xrotation Yrotation
            End Site
            {
              OFFSET 1 0 0
            }
          }
        }
      }
      JOINT rCollar
      {
        OFFSET -2.68224 19.2634 -4.8768
        CHANNELS 3 Zrotation Xrotation Yrotation
        JOINT rShldr
        {
          OFFSET -8.77824 -1.95073 1.46304
          CHANNELS 3 Zrotation Xrotation Yrotation
          JOINT rForeArm
          {
            OFFSET -28.1742 -1.7115 0.48768
            CHANNELS 3 Zrotation Xrotation Yrotation
            JOINT rHand
            {
              OFFSET -22.5879 0.773209 7.07136
              CHANNELS 3 Zrotation Xrotation Yrotation
              JOINT rThumb1
              {
                OFFSET -1.2192 -0.487915 3.41376
                CHANNELS 3 Zrotation Xrotation Yrotation
                JOINT rThumb2
                {
                  OFFSET -3.37035 -0.52449 3.41376
                  CHANNELS 3 Zrotation Xrotation Yrotation
                  End Site
                  {
                    OFFSET -1.78271 -1.18214 1.43049
                  }
                }
              }
              JOINT rIndex1
              {
                OFFSET -7.75947 0.938293 5.60832
                CHANNELS 3 Zrotation Xrotation Yrotation
                JOINT rIndex2
                {
                  OFFSET -2.54057 -0.884171 1.56538
                  CHANNELS 3 Zrotation Xrotation Yrotation
                  End Site
                  {
                    OFFSET -1.62519 -0.234802 1.16502
                  }
                }
              }
              JOINT rMid1
              {
                OFFSET -8.24714 1.18213 3.41376
                CHANNELS 3 Zrotation Xrotation Yrotation
                JOINT rMid2
                {
                  OFFSET -3.10165 -0.590103 1.0647
                  CHANNELS 3 Zrotation Xrotation Yrotation
                  End Site
                  {
                    OFFSET -2.48547 -0.328903 0.83742
                  }
                }
              }
              JOINT rRing1
              {
                OFFSET -8.82822 0.546677 1.51678
                CHANNELS 3 Zrotation Xrotation Yrotation
                JOINT rRing2
                {
                  OFFSET -2.60934 -0.819778 -0.0198488
                  CHANNELS 3 Zrotation Xrotation Yrotation
                  End Site
                  {
                    OFFSET -2.33842 -0.294052 0.168128
                  }
                }
              }
              JOINT rPinky1
              {
                OFFSET -8.27202 -0.0477905 -0.4584
                CHANNELS 3 Zrotation Xrotation Yrotation
                JOINT rPinky2
                {
                  OFFSET -1.82734 -0.647385 -0.700984
                  CHANNELS 3 Zrotation Xrotation Yrotation
                  End Site
                  {
                    OFFSET -1.69225 -0.51767 -0.607171
                  }
                }
              }
            }
          }
        }
      }
      JOINT lCollar
      {
        OFFSET 2.68224 19.2634 -4.8768
        CHANNELS 3 Zrotation Xrotation Yrotation
        JOINT lShldr
        {
          OFFSET 8.77824 -1.95073 1.46304
          CHANNELS 3 Zrotation Xrotation Yrotation
          JOINT lForeArm
          {
            OFFSET 28.1742 -1.7115 0.48768
            CHANNELS 3 Zrotation Xrotation Yrotation
            JOINT lHand
            {
              OFFSET 22.5879 0.773209 7.07136
              CHANNELS 3 Zrotation Xrotation Yrotation
              JOINT lThumb1
              {
                OFFSET 1.2192 -0.487915 3.41376
                CHANNELS 3 Zrotation Xrotation Yrotation
                JOINT lThumb2
                {
                  OFFSET 3.37035 -0.52449 3.41376
                  CHANNELS 3 Zrotation Xrotation Yrotation
                  End Site
                  {
                    OFFSET 1.78271 -1.18214 1.43049
                  }
                }
              }
              JOINT lIndex1
              {
                OFFSET 7.75947 0.938293 5.60832
                CHANNELS 3 Zrotation Xrotation Yrotation
                JOINT lIndex2
                {
                  OFFSET 2.54057 -0.884171 1.56538
                  CHANNELS 3 Zrotation Xrotation Yrotation
                  End Site
                  {
                    OFFSET 1.62519 -0.234802 1.16502
                  }
                }
              }
              JOINT lMid1
              {
                OFFSET 8.24714 1.18213 3.41376
                CHANNELS 3 Zrotation Xrotation Yrotation
                JOINT lMid2
                {
                  OFFSET 3.10165 -0.590103 1.0647
                  CHANNELS 3 Zrotation Xrotation Yrotation
                  End Site
                  {
                    OFFSET 2.48547 -0.328903 0.83742
                  }
                }
              }
              JOINT lRing1
              {
                OFFSET 8.82822 0.546677 1.51678
                CHANNELS 3 Zrotation Xrotation Yrotation
                JOINT lRing2
                {
                  OFFSET 2.60934 -0.819778 -0.0198488
                  CHANNELS 3 Zrotation Xrotation Yrotation
                  End Site
                  {
                    OFFSET 2.33842 -0.294052 0.168128
                  }
                }
              }
              JOINT lPinky1
              {
                OFFSET 8.27202 -0.0477905 -0.4584
                CHANNELS 3 Zrotation Xrotation Yrotation
                JOINT lPinky2
                {
                  OFFSET 1.82734 -0.647385 -0.700984
                  CHANNELS 3 Zrotation Xrotation Yrotation
                  End Site
                  {
                    OFFSET 1.69225 -0.51767 -0.607171
                  }
                }
              }
            }
          }
        }
      }
    }
  }
  JOINT rButtock
  {
    OFFSET -8.77824 4.35084 1.2192
    CHANNELS 3 Zrotation Xrotation Yrotation
    JOINT rThigh
    {
      OFFSET 0 -1.70687 -2.19456
      CHANNELS 3 Zrotation Xrotation Yrotation
      JOINT rShin
      {
        OFFSET 0 -36.8199 0.73152
        CHANNELS 3 Zrotation Xrotation Yrotation
        JOINT rFoot
        {
          OFFSET 0.73152 -45.1104 -5.12064
          CHANNELS 3 Zrotation Xrotation Yrotation
          End Site
          {
            OFFSET -1.1221 -3.69964 12.103
          }
        }
      }
    }
  }
  JOINT lButtock
  {
    OFFSET 8.77824 4.35084 1.2192
    CHANNELS 3 Zrotation Xrotation Yrotation
    JOINT lThigh
    {
      OFFSET 0 -1.70687 -2.19456
      CHANNELS 3 Zrotation Xrotation Yrotation
      JOINT lShin
      {
        OFFSET 0 -36.8199 0.73152
        CHANNELS 3 Zrotation Xrotation Yrotation
        JOINT lFoot
        {
          OFFSET -0.73152 -45.1104 -5.12064
          CHANNELS 3 Zrotation Xrotation Yrotation
          End Site
          {
            OFFSET 1.1221 -3.69964 12.103
          }
        }
      }
    }
  }
}
MOTION
Frames:	6
Frame Time:	0.00833333
0.0 0.0 0.0 0.0 0.0 0.0 0.0 0.0 0.0 0.0 0.0 0.0 0.0 0.0 0.0 0.0 0.0 0.0 0.0 0.0 0.0 0.0 0.0 0.0 0.0 0.0 0.0 0.0 0.0 0.0 0.0 0.0 0.0 0.0 0.0 0.0 0.0 0.0 0.0 0.0 0.0 0.0 0.0 0.0 0.0 0.0 0.0 0.0 0.0 0.0 0.0 0.0 0.0 0.0 0.0 0.0 0.0 0.0 0.0 0.0 0.0 0.0 0.0 0.0 0.0 0.0 0.0 0.0 0.0 0.0 0.0 0.0 0.0 0.0 0.0 0.0 0.0 0.0 0.0 0.0 0.0 0.0 0.0 0.0 0.0 0.0 0.0 0.0 0.0 0.0 0.0 0.0 0.0 0.0 0.0 0.0 0.0 0.0 0.0 0.0 0.0 0.0 0.0 0.0 0.0 0.0 0.0 0.0 0.0 0.0 0.0 0.0 0.0 0.0 0.0 0.0 0.0 0.0 0.0 0.0 0.0 0.0 0.0 0.0 0.0 0.0 0.0 0.0 0.0 0.0 0.0 0.0
-78.2316 83.5675 -5.24073 -0.0 0.0 -0.0 -0.0 -4.771896 -180.0 -0.0 -4.771896 180.0 -0.352604 0.077114 -2.052654 0.35514 -0.064434 2.053091 0.0 -0.0 -0.0 0.0 -0.0 -0.0 -155.61387 -4.23638 161.991154 25.645881 -23.152161 16.353226 -176.967426 -13.84904 178.705484 -3.797392 12.094135 -0.013101 -85.829417 38.630721 47.955432 -133.323724 -22.213348 79.730087 -140.684449 1.505836 116.183204 -21.119812 52.997836 14.642524 -89.835461 60.702148 81.262754 -19.862911 48.714677 14.946424 -145.119721 0.310087 -179.225753 -6.225444 -68.482277 -37.70601 0.098846 0.258289 0.091255 0.891057 2.5522 0.7466 159.221291 -48.380822 -170.491911 169.77673 -16.664453 -157.651395 -169.699251 57.909185 -157.698195 -177.540311 4.6801 -145.334064 93.743665 37.963835 -53.548561 -111.997703 -52.198878 -49.719487 162.333335 -36.963438 -122.667952 154.755767 -24.791165 -116.441298 160.673322 -6.667841 -143.245105 159.950334 -4.480616 -143.00716 -0.000474 0.063839 -0.020056 150.341235 60.771719 -154.135168 79.224717 -51.406839 77.662123 2.914031 -16.536578 4.582186 -0.0 0.0 -0.0 -0.0 -0.0 -0.0 -4.919407 3.500227 -54.588129 88.891524 33.647607 -8.266405 -0.0 0.0 -0.0 -0.0 -0.0 -0.0 4.919407 3.500227 54.588129 -88.891524 33.647607 8.266405
-78.3865 83.5735 -5.02943 -0.0 0.0 -0.0 -0.0 -4.771896 -180.0 -0.0 -4.771896 -180.0 -8.144544 9.765136 -77.762661 11.253376 5.904095 77.877376 0.0 -0.0 -0.0 0.0 -0.0 -0.0 -85.537448 68.182427 88.688908 5.843373 75.512119 13.59165 -89.644963 -75.619137 -111.334346 48.749916 -65.639982 35.411507 76.384988 -49.199857 28.871344 -15.289329 -32.418636 -27.037356 -0.044126 0.071581 0.024943 107.488834 -61.05873 61.973261 7.431997 -23.30116 -2.923946 7.880714 -21.939604 -0.136348 -69.297282 72.946551 87.017042 -32.051892 -65.123378 -49.41703 -4.66183 -10.865904 -4.365617 -167.836145 72.589696 -149.738954 158.417022 -29.366393 -166.793865 170.349976 -29.049062 -157.398026 -175.957096 64.42148 -151.870748 -173.363302 -8.530524 -144.738014 -81.971691 -50.091534 -32.722881 57.484978 31.519305 -19.420664 -179.29168 -59.501832 -116.31629 -100.65638 -62.342385 -37.143916 -7.904304 -24.807577 3.013399 -173.599728 -51.817638 -138.165678 72.350995 72.974965 -90.218005 154.420459 -23.452353 169.174621 85.782851 -50.535917 84.155244 156.405551 55.452127 152.461691 -0.0 0.0 -0.0 -0.0 -0.0 -0.0 7.081855 4.181059 77.332942 -151.579957 -27.88746 98.276681 -0.0 0.0 -0.0 -0.0 -0.0 -0.0 -7.081855 4.181059 -77.332942 151.579957 -27.88746 -98.276681
-78.5025 83.605 -4.7908 -0.0 0.0 -0.0 -0.0 -4.771896 -180.0 0.0 -4.771896 -180.0 2.348711 19.742543 -170.817555 5.72704 19.065302 169.446286 -0.0 -0.0 0.0 -0.0 -0.0 0.0 -155.460052 -3.227798 161.777534 23.198038 -15.362493 15.83025 -176.880395 -6.592034 178.753119 -3.845864 12.245587 -0.008067 -5.26295 5.103044 1.036734 6.217353 -6.492417 -1.324522 -7.259747 10.78091 4.54709 -174.762158 -15.410625 111.901818 -125.644075 49.839986 115.274123 -30.124756 56.893663 25.644095 -145.12196 1.973689 -179.748387 1.908337 -61.700821 -29.347154 -23.391137 -36.34947 -22.493225 8.466925 24.924098 7.478995 158.417022 -29.366393 -166.793865 -35.553536 -47.449735 -25.980237 178.950919 -6.996063 -178.57853 6.009564 18.84038 -0.346542 172.919631 -10.596393 -89.924195 0.021656 -54.937008 -7.555815 166.821797 -43.973781 -122.061691 -11.738698 18.86827 1.214286 125.644075 49.839986 -115.274123 30.124756 56.893663 -25.644095 72.133176 72.974596 -89.989695 -91.780485 86.420659 83.127622 -32.646368 83.587662 -5.695192 126.957948 -28.855904 122.784466 -0.0 0.0 -0.0 -0.0 -2.27635 -180.0 -4.055723 -2.993391 -143.675094 72.408322 -56.754181 -23.284793 -0.0 0.0 -0.0 -0.0 -2.27635 -180.0 4.055723 -2.993391 143.675094 -72.408322 -56.754181 23.284793
-78.5126 83.5926 -4.53769 -0.0 0.0 -0.0 -0.0 -4.771896 -180.0 -0.0 -4.771896 -180.0 -8.144544 9.765136 -77.762661 11.253376 5.904095 77.877376 0.0 -0.0 -0.0 0.0 -0.0 -0.0 -85.537448 68.182427 88.688908 5.843373 75.512119 13.59165 -89.644963 -75.619137 -111.334346 48.749916 -65.639982 35.411507 76.384988 -49.199857 28.871344 -15.289329 -32.418636 -27.037356 -0.044126 0.071581 0.024943 107.488834 -61.05873 61.973261 7.431997 -23.30116 -2.923946 7.880714 -21.939604 -0.136348 -69.297282 72.946551 87.017042 -32.051892 -65.123378 -49.41703 -4.66183 -10.865904 -4.365617 -167.836145 72.589696 -149.738954 158.417022 -29.366393 -166.793865 170.349976 -29.049062 -157.398026 -175.957096 64.42148 -151.870748 -173.363302 -8.530524 -144.738014 -81.971691 -50.091534 -32.722881 57.484978 31.519305 -19.420664 -179.29168 -59.501832 -116.31629 -100.65638 -62.342385 -37.143916 -7.904304 -24.807577 3.013399 -173.599728 -51.817638 -138.165678 72.350995 72.974965 -90.218005 154.420459 -23.452353 169.174621 85.782851 -50.535917 84.155244 156.405551 55.452127 152.461691 -0.0 0.0 -0.0 -0.0 -0.0 -0.0 7.081855 4.181059 77.332942 -151.579957 -27.88746 98.276681 -0.0 0.0 -0.0 -0.0 -0.0 -0.0 -7.081855 4.181059 -77.332942 151.579957 -27.88746 -98.276681
-78.5306 83.5933 -4.28506 -0.0 0.0 -0.0 -0.0 -4.771896 -180.0 -0.0 -4.771896 -180.0 -8.144544 9.765136 -77.762661 11.253376 5.904095 77.877376 0.0 -0.0 -0.0 0.0 -0.0 -0.0 -85.537448 68.182427 88.688908 5.843373 75.512119 13.59165 -89.644963 -75.619137 -111.334346 48.749916 -65.639982 35.411507 76.384988 -49.199857 28.871344 -15.289329 -32.418636 -27.037356 -0.044126 0.071581 0.024943 107.488834 -61.05873 61.973261 7.431997 -23.30116 -2.923946 7.880714 -21.939604 -0.136348 -69.297282 72.946551 87.017042 -32.051892 -65.123378 -49.41703 10.275856 33.656529 8.861945 -1.201893 -2.283707 -2.405029 158.417022 -29.366393 -166.793865 170.349976 -29.049062 -157.398026 -175.957096 64.42148 -151.870748 -173.363302 -8.530524 -144.738014 -88.928376 -50.831327 -37.599672 13.205531 -65.020941 39.69079 -179.29168 -59.501832 -116.31629 7.317746 34.952302 -12.948249 0.219913 0.63841 -0.122732 166.33295 -4.255727 -143.306999 -0.004672 0.917785 -0.288305 165.843354 -1.536374 -172.140537 -32.646368 83.587662 -5.695192 -0.137164 -2.271177 4.195754 -0.0 0.0 -0.0 -0.0 -0.0 -0.0 7.081855 4.181059 77.332942 -151.579957 -27.88746 98.276681 -0.0 0.0 -0.0 -0.0 -0.0 -0.0 -7.081855 4.181059 -77.332942 151.579957 -27.88746 -98.276681
